<?xml version="1.0" encoding="UTF-8" standalone="no"?>
<!-- Created with Inkscape (http://www.inkscape.org/) -->

<svg
   width="210mm"
   height="297mm"
   viewBox="0 0 210 297"
   version="1.1"
   id="svg1"
   sodipodi:docname="sharp3.svg"
   inkscape:version="1.3.1 (91b66b0783, 2023-11-16)"
   xmlns:inkscape="http://www.inkscape.org/namespaces/inkscape"
   xmlns:sodipodi="http://sodipodi.sourceforge.net/DTD/sodipodi-0.dtd"
   xmlns:xlink="http://www.w3.org/1999/xlink"
   xmlns="http://www.w3.org/2000/svg"
   xmlns:svg="http://www.w3.org/2000/svg">
  <sodipodi:namedview
     id="namedview1"
     pagecolor="#ffffff"
     bordercolor="#000000"
     borderopacity="0.25"
     inkscape:showpageshadow="2"
     inkscape:pageopacity="0.0"
     inkscape:pagecheckerboard="0"
     inkscape:deskcolor="#d1d1d1"
     inkscape:document-units="mm"
     inkscape:zoom="1.4022026"
     inkscape:cx="396.87561"
     inkscape:cy="561.61643"
     inkscape:window-width="1920"
     inkscape:window-height="1001"
     inkscape:window-x="-9"
     inkscape:window-y="-9"
     inkscape:window-maximized="1"
     inkscape:current-layer="layer1" />
  <defs
     id="defs1">
    <linearGradient
       id="linearGradient275"
       inkscape:collect="always">
      <stop
         style="stop-color:#000000;stop-opacity:1;"
         offset="0.29936305"
         id="stop275" />
      <stop
         style="stop-color:#000000;stop-opacity:0;"
         offset="1"
         id="stop276" />
    </linearGradient>
    <linearGradient
       id="linearGradient273"
       inkscape:collect="always">
      <stop
         style="stop-color:#000000;stop-opacity:1;"
         offset="0"
         id="stop273" />
      <stop
         style="stop-color:#000000;stop-opacity:0;"
         offset="1"
         id="stop274" />
    </linearGradient>
    <linearGradient
       id="linearGradient271"
       inkscape:collect="always">
      <stop
         style="stop-color:#000000;stop-opacity:1;"
         offset="0"
         id="stop271" />
      <stop
         style="stop-color:#000000;stop-opacity:0;"
         offset="1"
         id="stop272" />
    </linearGradient>
    <linearGradient
       id="linearGradient269"
       inkscape:collect="always">
      <stop
         style="stop-color:#000000;stop-opacity:1;"
         offset="0"
         id="stop269" />
      <stop
         style="stop-color:#000000;stop-opacity:0;"
         offset="1"
         id="stop270" />
    </linearGradient>
    <linearGradient
       id="linearGradient267"
       inkscape:collect="always">
      <stop
         style="stop-color:#000000;stop-opacity:1;"
         offset="0"
         id="stop267" />
      <stop
         style="stop-color:#000000;stop-opacity:0;"
         offset="1"
         id="stop268" />
    </linearGradient>
    <linearGradient
       id="linearGradient265"
       inkscape:collect="always">
      <stop
         style="stop-color:#000000;stop-opacity:1;"
         offset="0"
         id="stop265" />
      <stop
         style="stop-color:#000000;stop-opacity:0;"
         offset="1"
         id="stop266" />
    </linearGradient>
    <linearGradient
       id="linearGradient263"
       inkscape:collect="always">
      <stop
         style="stop-color:#000000;stop-opacity:1;"
         offset="0"
         id="stop263" />
      <stop
         style="stop-color:#000000;stop-opacity:0;"
         offset="1"
         id="stop264" />
    </linearGradient>
    <linearGradient
       id="linearGradient261"
       inkscape:collect="always">
      <stop
         style="stop-color:#000000;stop-opacity:1;"
         offset="0"
         id="stop261" />
      <stop
         style="stop-color:#000000;stop-opacity:0;"
         offset="1"
         id="stop262" />
    </linearGradient>
    <clipPath
       clipPathUnits="userSpaceOnUse"
       id="clipPath74">
      <path
         id="path74"
         style="fill:#ff0000;fill-opacity:1;fill-rule:nonzero;stroke:none;stroke-width:0.264583"
         d="m 36.983273,185.91062 v 24.53648 h 88.233887 v -0.72967 c -0.80148,-0.22971 -1.59547,-0.47321 -2.37401,-0.78135 -0.57384,-0.28555 -1.16478,-0.52229 -1.72703,-0.8294 -1.28072,-0.69957 -0.97745,-1.88963 -0.0165,-1.92392 0.26906,-0.01 0.58969,0.0713 0.94155,0.27906 0.47812,0.28229 1.01079,0.4505 1.49706,0.72037 0.55225,0.219 1.11332,0.39961 1.67897,0.56844 v -21.84001 z" />
    </clipPath>
    <inkscape:path-effect
       effect="bspline"
       id="path-effect67"
       is_visible="true"
       lpeversion="1.3"
       weight="33.333333"
       steps="2"
       helper_size="0"
       apply_no_weight="true"
       apply_with_weight="true"
       only_selected="false"
       uniform="false" />
    <clipPath
       clipPathUnits="userSpaceOnUse"
       id="clipPath91">
      <path
         id="path91"
         style="fill:#ff0000;fill-opacity:1;fill-rule:nonzero;stroke:none;stroke-width:0.264583"
         d="m 35.947159,177.67029 v 32.51223 h 20.026686 v -2.20245 c -0.278995,0.35046 -0.587356,0.67608 -0.938443,0.95343 -1.23852,0.59277 -1.894295,-0.1753 -2.170411,-1.29811 -0.145391,-0.8639 0.114091,-1.64281 0.517281,-2.39365 0.332103,-0.48191 0.450062,-1.04884 0.629936,-1.59371 0.171106,-0.68368 0.49076,-1.29304 0.829406,-1.90427 0.293256,-0.67904 0.610444,-1.34255 0.968417,-1.99006 0.05285,-0.12397 0.108103,-0.24686 0.163814,-0.36949 v -21.71392 z m 20.026686,26.03304 c -0.0692,0.17593 -0.129363,0.3564 -0.173117,0.54622 -0.133307,0.3856 -0.240318,0.7817 -0.387572,1.16117 0.122671,-0.23132 0.230883,-0.46937 0.314193,-0.71469 0.08026,-0.32859 0.164422,-0.65596 0.246496,-0.98392 z m -1.847432,3.57187 c -0.06005,0.0225 -0.122825,0.0609 -0.188103,0.12299 0.0545,-0.0112 0.118872,-0.0571 0.188103,-0.12299 z" />
    </clipPath>
    <clipPath
       clipPathUnits="userSpaceOnUse"
       id="clipPath73">
      <path
         id="path73"
         style="fill:#ff0000;fill-opacity:1;fill-rule:nonzero;stroke:none;stroke-width:0.264583"
         d="m 125.54531,179.06969 v 28.77809 c 0.28076,0.0814 0.56224,0.16159 0.84491,0.24133 1.79779,0.50713 1.34129,2.33503 -0.45734,1.83089 -0.12954,-0.0363 -0.25836,-0.0731 -0.38757,-0.10955 v 0.37155 h 22.66787 v -31.11231 z" />
    </clipPath>
    <linearGradient
       inkscape:collect="always"
       xlink:href="#linearGradient261"
       id="linearGradient262"
       x1="93.583392"
       y1="161.56141"
       x2="96.60127"
       y2="161.56141"
       gradientUnits="userSpaceOnUse" />
    <linearGradient
       inkscape:collect="always"
       xlink:href="#linearGradient263"
       id="linearGradient264"
       x1="95.87308"
       y1="159.75469"
       x2="98.730597"
       y2="159.75469"
       gradientUnits="userSpaceOnUse" />
    <linearGradient
       inkscape:collect="always"
       xlink:href="#linearGradient265"
       id="linearGradient266"
       x1="98.532664"
       y1="155.73007"
       x2="101.13701"
       y2="155.73007"
       gradientUnits="userSpaceOnUse" />
    <linearGradient
       inkscape:collect="always"
       xlink:href="#linearGradient267"
       id="linearGradient268"
       x1="101.10266"
       y1="150.37083"
       x2="103.48138"
       y2="150.37083"
       gradientUnits="userSpaceOnUse" />
    <linearGradient
       inkscape:collect="always"
       xlink:href="#linearGradient269"
       id="linearGradient270"
       x1="103.39787"
       y1="149.32288"
       x2="106.36296"
       y2="149.32288"
       gradientUnits="userSpaceOnUse" />
    <linearGradient
       inkscape:collect="always"
       xlink:href="#linearGradient271"
       id="linearGradient272"
       x1="106.37004"
       y1="152.77825"
       x2="108.83989"
       y2="152.77825"
       gradientUnits="userSpaceOnUse" />
    <linearGradient
       inkscape:collect="always"
       xlink:href="#linearGradient273"
       id="linearGradient274"
       x1="108.80805"
       y1="157.93201"
       x2="111.53709"
       y2="157.93201"
       gradientUnits="userSpaceOnUse" />
    <linearGradient
       inkscape:collect="always"
       xlink:href="#linearGradient275"
       id="linearGradient276"
       x1="111.16484"
       y1="161.73721"
       x2="114.20852"
       y2="161.73721"
       gradientUnits="userSpaceOnUse"
       gradientTransform="translate(0.20013728,-0.13342485)" />
  </defs>
  <g
     inkscape:label="Layer 1"
     inkscape:groupmode="layer"
     id="layer1">
    <path
       style="fill:none;stroke:#000000;stroke-width:2;stroke-linejoin:round;stroke-dasharray:none;stroke-opacity:1"
       d="m 74.401299,134.36822 0.377383,28.30369"
       id="path93" />
    <path
       style="fill:none;stroke:#000000;stroke-width:2;stroke-linejoin:round;stroke-dasharray:none;stroke-opacity:1"
       d="m 87.178976,135.24671 0.377383,28.30369"
       id="path93-8" />
    <path
       style="fill:none;stroke:#000000;stroke-width:2;stroke-linejoin:round;stroke-dasharray:none;stroke-opacity:1"
       d="m 125.21716,209.44726 c -0.8245,-0.0314 -1.64899,-0.0629 -2.89466,-0.31445 -1.24566,-0.25158 -2.9124,-0.7233 -4.18608,-1.46235 -1.27367,-0.73905 -2.15421,-1.74538 -2.90898,-2.75174 -0.75477,-1.00637 -1.38373,-2.0127 -1.94981,-3.01906 -0.56608,-1.00637 -1.06924,-2.0127 -1.47808,-3.03478 -0.40883,-1.02209 -0.72331,-2.05986 -1.7454,-2.81464 -1.0221,-0.75478 -2.75171,-1.22649 -3.8996,-1.44663 -1.14789,-0.22013 -1.71395,-0.18867 -2.40582,-0.0314 -0.69188,0.15725 -1.50951,0.44028 -2.15421,0.62897 -0.64471,0.18869 -1.11643,0.28303 -1.855484,0.25158 -0.739056,-0.0315 -1.745391,-0.18869 -3.254941,0.0472 -1.50955,0.23588 -3.522213,0.86484 -5.597839,1.17932 -2.075625,0.31449 -4.214083,0.31449 -6.016355,0.84759 -1.802271,0.53311 -3.103701,1.4796 -4.062887,1.27517 -0.959185,-0.20443 -1.493786,-1.61955 -2.059872,-3.01904 -0.566086,-1.39949 -1.163584,-2.78317 -1.808292,-3.58513 -0.644709,-0.80195 -1.336548,-1.02209 -2.214143,-1.10574 -0.877595,-0.0837 -1.940841,-0.0308 -2.664172,0.12642 -0.723332,0.15725 -1.106661,0.41889 -1.565657,0.82176 -0.458996,0.40286 -0.993608,0.9469 -1.528233,1.49096 -0.817662,0.30506 -1.635307,0.61011 -2.559667,0.28681 -0.92436,-0.32329 -1.955344,-1.27489 -3.103238,-2.61148 -1.147895,-1.33659 -2.412593,-3.05805 -2.616966,-3.02249 -0.204373,0.0356 0.651541,1.82803 0.242699,2.61426 -0.408841,0.78623 -2.082378,0.5661 -3.13935,0.99067 -1.056971,0.42457 -1.497241,1.4938 -1.843176,2.6574 -0.345936,1.16361 -0.59752,2.42153 -0.787471,3.4996 -0.18995,1.07806 -0.313225,1.94099 -0.627715,3.19895 -0.314491,1.25796 -0.817657,2.89325 -1.446635,4.0883 -0.628977,1.19505 -1.383727,1.9498 -2.264297,2.51588 -0.88057,0.56608 -1.886904,0.94345 -3.019064,1.19504 -1.13216,0.25159 -2.390077,0.37738 -3.459335,0.44027 -1.069258,0.0629 -1.698212,0.0629 -2.390087,0.0629 -0.691874,0 -1.320831,0 -1.824011,-0.0629 -0.50318,-0.0629 -0.880555,-0.18869 -1.383738,-0.25158 -0.503183,-0.0629 -1.132142,-0.0629 -1.761112,-0.0629"
       id="path67"
       sodipodi:nodetypes="cccccscccccccccccsccccccccsccccccsccc"
       clip-path="url(#clipPath74)"
       inkscape:original-d="m 125.21716,209.44726 c 0,0 -1.64899,-0.0629 -2.47351,-0.0943 -1.66681,-0.47173 -3.33355,-0.94345 -5.00032,-1.41517 -0.88058,-1.00638 -1.76112,-2.01271 -2.64168,-3.01906 -0.62898,-1.00638 -1.25794,-2.01271 -1.88691,-3.01906 -0.50319,-1.00638 -1.00635,-2.01271 -1.50953,-3.01906 -0.31449,-1.03782 -0.62897,-2.07559 -0.94346,-3.11341 -1.7297,-0.47174 -3.45931,-0.94345 -5.18901,-1.41519 -0.56608,0.0315 -1.13214,0.0629 -1.69822,0.0944 -0.81767,0.28304 -1.6353,0.56606 -2.45298,0.84911 -0.47174,0.0943 -0.94345,0.18868 -1.41519,0.28303 -1.006369,-0.15725 -2.012704,-0.31449 -3.019057,-0.47173 -2.012747,0.62899 -4.025413,1.25794 -6.03812,1.88692 -2.138542,0 -4.277,0 -6.415503,0 -1.509559,1.00637 -2.76747,2.0127 -4.151206,3.01905 -0.534637,-1.41521 -1.069238,-2.83033 -1.603875,-4.24555 -0.597536,-1.38376 -1.195032,-2.76744 -1.792567,-4.15121 -0.691882,-0.22014 -1.383722,-0.44027 -2.075603,-0.66042 -1.063309,0.0528 -2.126553,0.10567 -3.189861,0.1585 -0.383354,0.26166 -0.766685,0.5233 -1.150039,0.78496 -0.534636,0.54407 -1.603874,1.63217 -1.603874,1.63217 0,0 -1.635306,0.61011 -2.452986,0.91517 -1.031042,-0.95165 -2.062024,-1.90325 -3.093066,-2.8549 -1.264746,-1.72153 -2.529445,-3.44299 -3.794165,-5.16448 0.855974,1.7926 1.711887,3.58508 2.567864,5.37769 -1.673661,-0.22014 -3.347198,-0.44027 -5.02085,-0.66042 -0.440289,1.06928 -0.88056,2.13851 -1.320838,3.20776 -0.251592,1.25796 -0.503176,2.51588 -0.754766,3.77382 -0.251592,0.88058 -0.251587,1.76112 -0.37738,2.64168 -0.503188,1.63536 -1.006354,3.27065 -1.50953,4.90597 -0.75478,0.75478 -1.50953,1.50953 -2.264297,2.2643 -1.006371,0.37739 -2.012706,0.75476 -3.019059,1.13214 -1.257967,0.1258 -2.515884,0.25159 -3.773824,0.37738 -0.880576,0 -1.50953,0 -2.264296,0 -0.628983,0 -1.25794,0 -1.88691,0 -0.377392,-0.12579 -0.754767,-0.25158 -1.13215,-0.37738 -0.628981,0 -1.25794,0 -1.88691,0"
       inkscape:path-effect="#path-effect67"
       transform="matrix(1.0064161,0,0,0.99593069,12.498859,-44.881202)" />
    <rect
       style="fill:#ffffff;stroke:#000000;stroke-width:1.29046;stroke-linejoin:round;stroke-dasharray:none;stroke-opacity:1"
       id="rect91"
       width="3.8607469"
       height="12.16316"
       x="72.733429"
       y="141.81499" />
    <rect
       style="fill:#ffffff;stroke:#000000;stroke-width:0.952005;stroke-linejoin:round;stroke-dasharray:none;stroke-opacity:1"
       id="rect91-3"
       width="4.1992021"
       height="6.0861139"
       x="85.178856"
       y="142.27873" />
    <path
       style="opacity:1;fill:none;stroke:#000000;stroke-width:2;stroke-linejoin:round;stroke-dasharray:none;stroke-opacity:1"
       d="M 116.02464,164.58133 104.57747,134.91215 93.893431,164.58133"
       id="path92" />
    <path
       id="text1-9"
       style="font-size:50.8px;font-family:'Sitka Banner';-inkscape-font-specification:'Sitka Banner';fill:#000000;stroke-width:0.264583"
       d="m 45.791003,177.67029 c -1.399813,0 -2.701565,0.24078 -3.905704,0.72244 -1.204143,0.46661 -2.250255,1.12132 -3.13831,1.96422 -0.873002,0.82785 -1.557948,1.80633 -2.054655,2.93522 -0.49671,1.11384 -0.745174,2.31056 -0.745174,3.58996 0,1.80622 0.459019,3.34157 1.377177,4.60592 0.93321,1.26436 2.242645,2.23516 3.928442,2.91249 0.556918,0.22578 1.113785,0.42147 1.670699,0.58704 0.571969,0.15052 1.136519,0.30114 1.693437,0.45165 0.571966,0.15052 1.136519,0.30831 1.693437,0.47388 0.556914,0.15052 1.12147,0.34621 1.693436,0.58704 1.279402,0.54187 2.295288,1.25703 3.047876,2.14509 0.752587,0.87301 1.12913,2.0021 1.12913,3.38687 0,0.97837 -0.150616,1.85132 -0.451652,2.61896 -0.285981,0.7526 -0.707608,1.39194 -1.264522,1.91875 -0.541866,0.51176 -1.204267,0.90316 -1.986959,1.17409 -0.767639,0.27093 -1.625224,0.40669 -2.573486,0.40669 -0.250394,0 -0.52968,-0.0227 -0.824756,-0.0574 -0.381639,0.40763 -1.02839,0.66545 -1.902726,0.61857 -0.04532,0.44998 -0.305184,0.90684 -0.80977,1.27589 0.02708,0.004 0.05568,0.01 0.08268,0.014 0.73754,0.12042 1.437333,0.18087 2.099614,0.18087 2.016938,0 3.747995,-0.28586 5.192964,-0.85783 1.444972,-0.57197 2.626329,-1.31736 3.544487,-2.23552 0.93321,-0.91816 1.610983,-1.95658 2.032434,-3.11557 0.436504,-1.17405 0.65474,-2.35591 0.65474,-3.54501 0,-1.11383 -0.165986,-2.07694 -0.497127,-2.88974 -0.316088,-0.8128 -0.737195,-1.51259 -1.264005,-2.09962 -0.526814,-0.58702 -1.12928,-1.07626 -1.806608,-1.46761 -0.662281,-0.4064 -1.339534,-0.75271 -2.031918,-1.03869 -0.617122,-0.25588 -1.211387,-0.47412 -1.783353,-0.65474 -0.556918,-0.18063 -1.106613,-0.3461 -1.648479,-0.49661 l -1.625223,-0.45166 c -0.526814,-0.15051 -1.061141,-0.32367 -1.603003,-0.51934 -0.842903,-0.30104 -1.543213,-0.66989 -2.100131,-1.1064 -0.541862,-0.45155 -0.970655,-0.94028 -1.286743,-1.46709 -0.316085,-0.52681 -0.534325,-1.09136 -0.65474,-1.69344 -0.120415,-0.60207 -0.180868,-1.21939 -0.180868,-1.85156 0,-0.72249 0.128074,-1.39206 0.383956,-2.00918 0.270933,-0.61713 0.647475,-1.14428 1.12913,-1.58079 0.481658,-0.4365 1.068753,-0.77512 1.761133,-1.01595 0.707433,-0.25589 1.505082,-0.38396 2.393136,-0.38396 0.346188,0 0.760129,0.0379 1.241784,0.11317 0.481658,0.0602 0.970901,0.15806 1.467611,0.29352 0.511759,0.13547 1.008173,0.30094 1.489832,0.49661 0.481655,0.19568 0.903278,0.42877 1.264522,0.6997 0.16557,0.12042 0.345895,0.27102 0.541569,0.45165 0.210726,0.18062 0.354172,0.38401 0.429431,0.60979 l 1.557528,4.177 h 1.196826 v -7.33805 c -0.632177,-0.21073 -1.286892,-0.40643 -1.964221,-0.58705 -0.677333,-0.19568 -1.37713,-0.36114 -2.099614,-0.49661 -0.722485,-0.13546 -1.460193,-0.24101 -2.212785,-0.31626 -0.752588,-0.0903 -1.512838,-0.13539 -2.280481,-0.13539 z"
       clip-path="url(#clipPath91)"
       transform="translate(13.265341,-45.643207)" />
    <path
       id="text2-0"
       style="font-size:50.8px;font-family:'Sitka Banner';-inkscape-font-specification:'Sitka Banner';fill:#000000;stroke-width:0.264583"
       d="m 68.87229,133.42722 v 1.06143 l 2.867009,0.58705 c 0.301034,0.0753 0.5495,0.23304 0.745174,0.47387 0.06783,0.0775 0.120894,0.16269 0.166915,0.25115 h 1.722892 1.281575 c 0.49434,0 0.921162,0.0677 1.284676,0.18241 0.05261,-0.14863 0.131361,-0.28633 0.240296,-0.41082 0.210726,-0.25589 0.46637,-0.42136 0.767395,-0.49661 l 2.844787,-0.58705 v -1.06143 z m 3.794084,28.68042 c -0.04767,0.10111 -0.104544,0.19839 -0.181901,0.2868 -0.195674,0.24083 -0.44414,0.39913 -0.745174,0.47439 l -2.867009,0.60927 v 1.06143 h 11.920719 v -1.06143 l -2.844787,-0.60927 c -0.316076,-0.0753 -0.57942,-0.22587 -0.790133,-0.45165 -0.05094,-0.0627 -0.09409,-0.12963 -0.131775,-0.19947 h -2.136303 -1.204578 c -0.378686,0 -0.717144,-0.0404 -1.019059,-0.11007 z" />
    <path
       id="text2-0-4"
       style="font-size:50.8px;font-family:'Sitka Banner';-inkscape-font-specification:'Sitka Banner';fill:#000000;stroke-width:0.264583"
       d="m 81.527856,133.42722 v 1.06143 l 2.867009,0.58705 c 0.301034,0.0753 0.5495,0.23304 0.745174,0.47387 0.06783,0.0775 0.120894,0.16269 0.166915,0.25115 h 1.722892 1.281575 c 0.49434,0 0.921162,0.0677 1.284676,0.18241 0.05261,-0.14863 0.131361,-0.28633 0.240296,-0.41082 0.210726,-0.25589 0.46637,-0.42136 0.767395,-0.49661 l 2.844787,-0.58705 v -1.06143 z m 3.794084,28.68042 c -0.04767,0.10111 -0.104544,0.19839 -0.181901,0.2868 -0.195674,0.24083 -0.44414,0.39913 -0.745174,0.47439 l -2.867009,0.60927 v 1.06143 h 11.920719 v -1.06143 l -2.844787,-0.60927 c -0.316076,-0.0753 -0.57942,-0.22587 -0.790133,-0.45165 -0.05094,-0.0627 -0.09409,-0.12963 -0.131775,-0.19947 h -2.136303 -1.204578 c -0.378686,0 -0.717144,-0.0404 -1.019059,-0.11007 z" />
    <path
       id="text5-9"
       style="font-size:50.8px;font-family:'Sitka Banner';-inkscape-font-specification:'Sitka Banner';fill:#000000;stroke-width:0.264583"
       d="m 125.54531,179.06969 v 1.06143 l 2.86752,0.58705 c 0.30104,0.0753 0.54899,0.23304 0.74466,0.47387 0.21073,0.24083 0.31626,0.53438 0.31626,0.88057 v 25.10648 c 0,0.33114 -0.10553,0.61699 -0.31626,0.85782 -0.19567,0.24083 -0.44362,0.39913 -0.74466,0.47439 l -2.86752,0.60979 v 1.06091 h 12.30467 v -1.06091 l -3.22822,-0.60979 c -0.30104,-0.0602 -0.55719,-0.21082 -0.76791,-0.45165 -0.21073,-0.24083 -0.31626,-0.53437 -0.31626,-0.88056 v -11.37916 c 0.31608,0.19568 0.6624,0.39138 1.03869,0.58705 0.3763,0.18062 0.75284,0.34609 1.12913,0.49661 0.39135,0.13547 0.77506,0.24869 1.15135,0.339 0.3763,0.0753 0.73747,0.11265 1.08366,0.11265 1.46003,0 2.81453,-0.23309 4.06383,-0.6997 1.2493,-0.4666 2.33332,-1.129 3.25148,-1.98696 0.91817,-0.873 1.6405,-1.92679 2.16731,-3.16104 0.52682,-1.24931 0.79014,-2.64889 0.79014,-4.19923 0,-1.46003 -0.30072,-2.70952 -0.90279,-3.74809 -0.58702,-1.03858 -1.39235,-1.88899 -2.41588,-2.55127 -1.02352,-0.66228 -2.22024,-1.14383 -3.58996,-1.44487 -1.35466,-0.31609 -2.79985,-0.47439 -4.33513,-0.47439 z m 7.99228,1.64848 h 2.68717 c 1.47508,0 2.70151,0.21055 3.67988,0.632 0.97837,0.42145 1.75347,0.986 2.32544,1.69344 0.58702,0.69238 0.99378,1.49771 1.21956,2.41587 0.24083,0.91816 0.36122,1.88127 0.36122,2.88975 0,0.31609 -0.0302,0.71516 -0.0904,1.19682 -0.0602,0.46661 -0.1806,0.96302 -0.36122,1.48983 -0.16557,0.52682 -0.39918,1.05397 -0.70022,1.58079 -0.28598,0.51176 -0.66969,0.97846 -1.15135,1.39991 -0.46661,0.42145 -1.03115,0.76725 -1.69344,1.03818 -0.66228,0.25588 -1.44455,0.38396 -2.34766,0.38396 -0.33114,0 -0.67745,-0.008 -1.03869,-0.0227 -0.36125,-0.0151 -0.71524,-0.0376 -1.06144,-0.0677 -0.34619,-0.0451 -0.67713,-0.0902 -0.99322,-0.13539 -0.31609,-0.0451 -0.59478,-0.0979 -0.8356,-0.15813 z"
       clip-path="url(#clipPath73)"
       transform="matrix(1,0,0,1.0060648,12.736174,-46.688133)" />
    <path
       id="text5-9-4"
       style="font-size:50.8px;font-family:'Sitka Banner';-inkscape-font-specification:'Sitka Banner';fill:#000000;stroke-width:0.264583"
       d="m 115.92367,133.65627 v 1.06091 l 2.86753,0.58705 c 0.30103,0.0753 0.5495,0.23356 0.74517,0.47439 0.21073,0.24083 0.31574,0.53437 0.31574,0.88056 v 25.10648 c 0,0.33114 -0.10501,0.617 -0.31574,0.85783 -0.19567,0.24083 -0.44414,0.39913 -0.74517,0.47439 l -2.86753,0.60927 v 1.06143 h 12.30468 v -1.06143 l -3.22823,-0.60927 c -0.30104,-0.0602 -0.55719,-0.21082 -0.76791,-0.45165 -0.21073,-0.24083 -0.31626,-0.53438 -0.31626,-0.88057 v -11.37915 c 0.31609,0.19568 0.6624,0.39137 1.03869,0.58705 0.3763,0.18062 0.75284,0.34609 1.12913,0.49661 0.39135,0.13546 0.77506,0.24817 1.15135,0.33848 0.3763,0.0753 0.73747,0.11317 1.08366,0.11317 1.46003,0 2.81453,-0.23361 4.06383,-0.70022 1.24931,-0.4666 2.33332,-1.12848 3.25148,-1.98644 0.91817,-0.87301 1.6405,-1.9268 2.16731,-3.16105 0.52682,-1.2493 0.79014,-2.6494 0.79014,-4.19974 0,-1.46003 -0.30072,-2.709 -0.90279,-3.74758 -0.58702,-1.03857 -1.39235,-1.88898 -2.41587,-2.55126 -1.02353,-0.66228 -2.22025,-1.14384 -3.58997,-1.44487 -1.35466,-0.31609 -2.79984,-0.47439 -4.33513,-0.47439 z m 7.99228,1.64796 h 2.68717 c 1.47508,0 2.70151,0.21107 3.67988,0.63252 0.97837,0.42145 1.75347,0.986 2.32544,1.69343 0.58702,0.69239 0.99379,1.4972 1.21956,2.41536 0.24083,0.91816 0.36122,1.88179 0.36122,2.89026 0,0.31609 -0.0302,0.71465 -0.0904,1.19631 -0.0602,0.46661 -0.1806,0.96354 -0.36122,1.49035 -0.16557,0.52682 -0.39866,1.05345 -0.6997,1.58027 -0.28598,0.51176 -0.67021,0.97846 -1.15187,1.39991 -0.4666,0.42145 -1.03115,0.76776 -1.69343,1.0387 -0.66228,0.25588 -1.44455,0.38395 -2.34766,0.38395 -0.33114,0 -0.67746,-0.008 -1.0387,-0.0227 -0.36124,-0.0151 -0.71524,-0.0376 -1.06143,-0.0677 -0.3462,-0.0452 -0.67714,-0.0902 -0.99323,-0.13539 -0.31608,-0.0452 -0.59477,-0.0979 -0.8356,-0.15813 z" />
    <rect
       style="fill:url(#linearGradient262);stroke:#000000;stroke-width:0.6;stroke-dasharray:none;stroke-opacity:1;opacity:0.7184466"
       id="rect8-6"
       width="2.4178777"
       height="5.814321"
       x="93.883392"
       y="158.65425" />
    <rect
       style="fill:url(#linearGradient264);stroke:#000000;stroke-width:0.6;stroke-dasharray:none;stroke-opacity:1;opacity:0.7184466"
       id="rect8-3-6"
       width="2.2575164"
       height="9.427784"
       x="96.17308"
       y="155.0408" />
    <rect
       style="fill:url(#linearGradient266);stroke:#000000;stroke-width:0.6;stroke-dasharray:none;stroke-opacity:1;opacity:0.7184466"
       id="rect8-3-7-76"
       width="2.0043428"
       height="17.477024"
       x="98.832664"
       y="146.99156" />
    <rect
       style="fill:url(#linearGradient268);stroke:#000000;stroke-width:0.6;stroke-dasharray:none;stroke-opacity:1;opacity:0.7184466"
       id="rect8-3-7-7-0-0"
       width="1.7787203"
       height="28.195494"
       x="101.40266"
       y="136.27309" />
    <rect
       style="fill:url(#linearGradient270);stroke:#000000;stroke-width:0.6;stroke-dasharray:none;stroke-opacity:1;opacity:0.7184466"
       id="rect8-3-7-7-0-5-4"
       width="2.3650939"
       height="30.291397"
       x="103.69787"
       y="134.17719" />
    <rect
       style="fill:url(#linearGradient272);stroke:#000000;stroke-width:0.6;stroke-dasharray:none;stroke-opacity:1;opacity:0.7184466"
       id="rect8-3-7-7-0-5-8-3"
       width="1.8698499"
       height="23.380651"
       x="106.67004"
       y="141.08792" />
    <rect
       style="fill:url(#linearGradient274);stroke:#000000;stroke-width:0.6;stroke-dasharray:none;stroke-opacity:1;opacity:0.7184466"
       id="rect8-3-7-7-0-5-8-5-6"
       width="2.1290426"
       height="13.073135"
       x="109.10805"
       y="151.39545" />
    <rect
       style="opacity:0.718447;fill:url(#linearGradient276);stroke:#000000;stroke-width:0.6;stroke-dasharray:none;stroke-opacity:1"
       id="rect8-3-7-7-0-5-8-5-07-5"
       width="2.4436758"
       height="5.4627366"
       x="111.66498"
       y="158.87242" />
    <path
       style="fill:#000000;stroke:#000000;stroke-width:0.665;stroke-dasharray:none;stroke-opacity:1"
       d="m 140.29193,163.79616 c -1.79257,0.66042 -1.79257,0.66042 -1.79257,0.66042"
       id="path1"
       inkscape:transform-center-x="0.094345616"
       inkscape:transform-center-y="-2.7360229" />
    <path
       style="fill:#000000;stroke:#000000;stroke-width:0.665;stroke-dasharray:none;stroke-opacity:1"
       d="m 140.53489,163.79616 c -1.79257,0.66042 -1.79257,0.66042 -1.79257,0.66042"
       id="path1-0"
       inkscape:transform-center-x="0.094345616"
       inkscape:transform-center-y="-2.7360229" />
    <path
       style="fill:#000000;stroke:#000000;stroke-width:2;stroke-dasharray:none;stroke-opacity:1"
       d="m 89.127798,145.69993 c -4.13617,0 -4.13617,0 -4.13617,0"
       id="path6" />
    <path
       style="fill:#000000;stroke:#000000;stroke-width:2;stroke-dasharray:none;stroke-opacity:1"
       d="m 76.631996,145.99167 c -4.13617,0 -4.13617,0 -4.13617,0"
       id="path6-1" />
  </g>
</svg>
